# xmcd CD database file
#
# Track frame offsets:
#	150
#	13930
#	26287
#	43805
#	64195
#	81847
#	119180
#	136982
#
# Disc length: 2073 seconds
#
# Revision: 1
# Processed by: cddbd v1.5.1PL0 Copyright (c) Steve Scherf et al.
# Submitted via: CDex 1.51
#
DISCID=6e081708
DTITLE=Vari - I COLORI DELLA VITA - Pace
DYEAR=2005
DGENRE=New Age
TTITLE0=Fabrizio De André - La guerra di Piero
TTITLE1=Gianni Morandi - Un mondo d'amore
TTITLE2=Equipe 84 - Auschwitz
TTITLE3=Rino Gaetano - Ma il cielo è sempre più blu
TTITLE4=Edoardo Bennato - La torre di Babele
TTITLE5=Gianna Nannini - California
TTITLE6=Renato Zero - Tu che sei mio fratello
TTITLE7=Paola Turci - Bambini
EXTD=YEAR: 2005
EXTT0=
EXTT1=
EXTT2=
EXTT3=
EXTT4=
EXTT5=
EXTT6=
EXTT7=
PLAYORDER=
